<svg xmlns="http://www.w3.org/2000/svg" viewBox="0 0 100 100" width="100" height="100" preserveAspectRatio="xMidYMid slice" role="img" aria-label="Mapa del tesoro ilustrado de Cali">
  <defs>
    <linearGradient id="paper" x1="0" y1="0" x2="1" y2="1">
      <stop offset="0" stop-color="#F7E7C3"/>
      <stop offset="0.55" stop-color="#EED290"/>
      <stop offset="1" stop-color="#DCB06A"/>
    </linearGradient>
    <linearGradient id="mountains" x1="0" y1="0" x2="0" y2="1">
      <stop offset="0" stop-color="#B7A98C" stop-opacity="0.95"/>
      <stop offset="1" stop-color="#9C8A6E" stop-opacity="0.8"/>
    </linearGradient>
    <linearGradient id="river" x1="0" y1="0" x2="1" y2="0">
      <stop offset="0" stop-color="#7FA8C9" stop-opacity="0"/>
      <stop offset="0.35" stop-color="#7FA8C9" stop-opacity="0.6"/>
      <stop offset="0.6" stop-color="#7FA8C9" stop-opacity="0.5"/>
      <stop offset="1" stop-color="#7FA8C9" stop-opacity="0"/>
    </linearGradient>
    <radialGradient id="vignette" cx="0.5" cy="0.5" r="0.75">
      <stop offset="0" stop-color="#3a2410" stop-opacity="0"/>
      <stop offset="1" stop-color="#3a2410" stop-opacity="0.28"/>
    </radialGradient>
  </defs>

  <rect x="0" y="0" width="100" height="100" rx="6" fill="url(#paper)"/>

  <ellipse cx="24" cy="82" rx="26" ry="16" fill="#C79B55" opacity="0.22"/>
  <ellipse cx="74" cy="70" rx="22" ry="12" fill="#B98E4C" opacity="0.18"/>
  <ellipse cx="50" cy="26" rx="32" ry="12" fill="#C79B55" opacity="0.14"/>

  <g>
    <path d="M-2 46 L12 26 L26 46 L38 22 L50 46" fill="none" stroke="#978567" strokeWidth="1.1" strokeLinejoin="round" opacity="0.55"/>
    <path d="M48 46 L60 24 L72 46 L84 20 L104 46" fill="none" stroke="#978567" strokeWidth="1.1" strokeLinejoin="round" opacity="0.55"/>
  </g>
  <g fill="url(#mountains)" opacity="0.85">
    <path d="M-2 56 L13 30 L28 56 Z"/>
    <path d="M28 56 L40 24 L54 56 Z"/>
    <path d="M52 56 L66 30 L80 56 Z"/>
    <path d="M78 56 L92 26 L104 56 Z"/>
  </g>

  <path d="M28 86 C24 78 30 70 36 64 C40 60 40 52 45 48 C49 44 46 35 53 33 C60 30 66 33 68 38 C72 44 76 42 78 48 C81 55 79 60 76 64 C72 68 72 76 67 82 C62 88 56 92 47 92 C40 92 33 91 28 86 Z"
    fill="#D9B877" stroke="#A87C4A" strokeWidth="0.7" strokeDasharray="1 1" strokeLinejoin="round"/>

  <path d="M60 12 C61 34 63 58 61 92 C66 90 70 60 71 12 Z"
    fill="url(#river)" stroke="#6E96B8" strokeWidth="0.4" opacity="0.9"/>

  <g stroke="#BE9A5F" strokeWidth="0.35" opacity="0.55">
    <path d="M36 66 H56"/>
    <path d="M38 72 H58"/>
    <path d="M36 78 H54"/>
    <path d="M42 60 V68"/>
    <path d="M50 60 V68"/>
    <path d="M58 60 V72"/>
    <path d="M58 72 H70"/>
    <path d="M62 72 V80 H74"/>
  </g>

  <g transform="translate(82,78)">
    <path d="M0 10 Q-4 0 0 -7 Q4 0 0 10 Z" fill="none" stroke="#4E7A3B" strokeWidth="1"
      transform="translate(-4,0)"/>
    <path d="M0 12 Q5 2 0 -6 Q-5 2 0 12 Z" fill="none" stroke="#4E7A3B" strokeWidth="1"/>
    <path d="M-5 8 Q5 6 0 -6 Z" fill="none" stroke="#4E7A3B" strokeWidth="1" transform="translate(2,-2)"/>
    <path d="M-5 8 Q-5 4 5 6 Z" fill="none" stroke="#5C8F44" strokeWidth="1" transform="translate(3,-3)"/>
    <rect x="-0.6" y="2" width="1.2" height="9" fill="#8A643C"/>
  </g>

  <g transform="translate(11,15)">
    <circle cx="0" cy="0" r="6" fill="none" stroke="#8A643C" strokeWidth="0.5"/>
    <circle cx="0" cy="0" r="3.4" fill="none" stroke="#8A643C" strokeWidth="0.35" opacity="0.7"/>
    <g fill="#8A643C">
      <path d="M0 -5 L1.1 0 L0 5 L-1.1 0 Z"/>
      <path d="M-5 0 L0 1.1 L5 0 L0 -1.1 Z"/>
    </g>
    <circle cx="0" cy="0" r="0.9" fill="#8A643C"/>
  </g>

  <text x="50" y="7.6" text-anchor="middle" font-family="Georgia, 'Times New Roman', serif" font-style="italic" font-size="4.6" fill="#7A5A36" opacity="0.92">Cali — Ruta del Software</text>

  <g transform="translate(12,87)">
    <rect x="0" y="0" width="34" height="7.5" rx="2" fill="#EFDCAC" stroke="#A87C4A" strokeWidth="0.5"/>
    <text x="17" y="5.1" text-anchor="middle" font-family="Georgia, serif" font-style="italic" font-size="2.9" fill="#7A5A36" letter-spacing="0.4">MAPA DEL TESORO</text>
  </g>

  <rect x="0" y="0" width="100" height="100" rx="6" fill="url(#vignette)"/>
  <rect x="1.2" y="1.2" width="97.6" height="97.6" rx="4.5" fill="none" stroke="#A87C4A" strokeWidth="0.55" opacity="0.7"/>
</svg>